<svg data-logo="logo" xmlns="http://www.w3.org/2000/svg" viewBox="0 0 163 28">
            <g style="opacity: 1;" id="logogram" transform="translate(0, 14) rotate(0)"></g>
            <g style="opacity: 1;" id="logotype" transform="translate(0, 1)"><path fill="#ffffff" d="M9.78 26.38L9.78 26.38Q7.47 26.38 5.69 25.72Q3.91 25.06 2.79 23.80Q1.66 22.55 1.33 20.77L1.33 20.77L6.10 19.95Q6.48 21.28 7.42 21.95Q8.36 22.62 9.93 22.62L9.93 22.62Q11.38 22.62 12.24 22.06Q13.09 21.51 13.09 20.65L13.09 20.65Q13.09 19.90 12.48 19.42Q11.88 18.94 10.63 18.69L10.63 18.69L7.33 18.00Q4.56 17.44 3.20 16.08Q1.83 14.72 1.83 12.58L1.83 12.58Q1.83 10.74 2.84 9.41Q3.85 8.09 5.64 7.37Q7.43 6.65 9.86 6.65L9.86 6.65Q12.12 6.65 13.77 7.28Q15.43 7.90 16.46 9.05Q17.48 10.19 17.82 11.75L17.82 11.75L13.28 12.55Q12.99 11.58 12.16 10.95Q11.33 10.33 9.93 10.33L9.93 10.33Q8.66 10.33 7.81 10.86Q6.96 11.39 6.96 12.26L6.96 12.26Q6.96 12.99 7.51 13.49Q8.07 13.99 9.42 14.26L9.42 14.26L12.85 14.94Q15.62 15.51 16.97 16.78Q18.32 18.05 18.32 20.10L18.32 20.10Q18.32 21.98 17.23 23.39Q16.13 24.80 14.21 25.59Q12.29 26.38 9.78 26.38ZM24.64 14.94L24.64 14.94L24.64 26L19.51 26L19.51 6.89L24.35 6.89L24.44 11.66L24.13 11.66Q24.88 9.27 26.41 7.96Q27.94 6.65 30.37 6.65L30.37 6.65Q32.35 6.65 33.82 7.52Q35.29 8.38 36.11 10.00Q36.93 11.61 36.93 13.85L36.93 13.85L36.93 26L31.80 26L31.80 14.74Q31.80 12.96 30.89 11.95Q29.97 10.94 28.35 10.94L28.35 10.94Q27.27 10.94 26.43 11.41Q25.58 11.88 25.11 12.77Q24.64 13.66 24.64 14.94ZM45.61 26.24L45.61 26.24Q43.63 26.24 42.14 25.38Q40.65 24.51 39.84 22.90Q39.03 21.28 39.03 19.04L39.03 19.04L39.03 6.89L44.16 6.89L44.16 18.16Q44.16 19.93 45.08 20.94Q46.00 21.95 47.61 21.95L47.61 21.95Q48.70 21.95 49.54 21.48Q50.38 21.01 50.85 20.11Q51.32 19.22 51.32 17.95L51.32 17.95L51.32 6.89L56.44 6.89L56.44 26L51.61 26L51.54 21.23L51.83 21.23Q51.08 23.64 49.53 24.94Q47.98 26.24 45.61 26.24ZM66.13 26.38L66.13 26.38Q63.82 26.38 62.05 25.72Q60.27 25.06 59.14 23.80Q58.01 22.55 57.69 20.77L57.69 20.77L62.46 19.95Q62.83 21.28 63.77 21.95Q64.71 22.62 66.29 22.62L66.29 22.62Q67.74 22.62 68.59 22.06Q69.45 21.51 69.45 20.65L69.45 20.65Q69.45 19.90 68.84 19.42Q68.23 18.94 66.99 18.69L66.99 18.69L63.69 18.00Q60.92 17.44 59.55 16.08Q58.18 14.72 58.18 12.58L58.18 12.58Q58.18 10.74 59.19 9.41Q60.20 8.09 62.00 7.37Q63.79 6.65 66.22 6.65L66.22 6.65Q68.47 6.65 70.13 7.28Q71.79 7.90 72.81 9.05Q73.84 10.19 74.18 11.75L74.18 11.75L69.63 12.55Q69.34 11.58 68.52 10.95Q67.69 10.33 66.29 10.33L66.29 10.33Q65.02 10.33 64.17 10.86Q63.31 11.39 63.31 12.26L63.31 12.26Q63.31 12.99 63.87 13.49Q64.42 13.99 65.77 14.26L65.77 14.26L69.21 14.94Q71.98 15.51 73.33 16.78Q74.68 18.05 74.68 20.10L74.68 20.10Q74.68 21.98 73.58 23.39Q72.49 24.80 70.57 25.59Q68.64 26.38 66.13 26.38ZM81.00 14.94L81.00 14.94L81.00 26L75.87 26L75.87 0.54L80.90 0.54L80.90 11.66L80.48 11.66Q81.24 9.27 82.77 7.96Q84.30 6.65 86.72 6.65L86.72 6.65Q88.71 6.65 90.18 7.52Q91.66 8.38 92.47 10.00Q93.29 11.61 93.29 13.85L93.29 13.85L93.29 26L88.16 26L88.16 14.74Q88.16 12.96 87.24 11.95Q86.33 10.94 84.71 10.94L84.71 10.94Q83.63 10.94 82.78 11.41Q81.94 11.88 81.47 12.77Q81.00 13.66 81.00 14.94ZM100.51 26L95.39 26L95.39 6.89L100.34 6.89L100.34 10.23L100.55 10.23Q101.08 8.45 102.32 7.54Q103.55 6.64 105.16 6.64L105.16 6.64Q105.55 6.64 106.01 6.68Q106.46 6.72 106.82 6.81L106.82 6.81L106.82 11.39Q106.48 11.27 105.83 11.20Q105.18 11.13 104.60 11.13L104.60 11.13Q103.43 11.13 102.49 11.64Q101.55 12.14 101.03 13.04Q100.51 13.93 100.51 15.13L100.51 15.13L100.51 26ZM112.49 26L107.36 26L107.36 6.89L112.11 6.89L112.37 11.64L111.99 11.64Q112.44 9.88 113.30 8.77Q114.16 7.66 115.33 7.13Q116.49 6.60 117.77 6.60L117.77 6.60Q119.84 6.60 121.10 7.91Q122.37 9.22 122.97 11.95L122.97 11.95L122.37 11.95Q122.80 10.12 123.76 8.94Q124.73 7.75 126.05 7.18Q127.38 6.60 128.83 6.60L128.83 6.60Q130.59 6.60 131.96 7.37Q133.34 8.14 134.13 9.59Q134.93 11.03 134.93 13.11L134.93 13.11L134.93 26L129.80 26L129.80 14.09Q129.80 12.46 128.92 11.68Q128.04 10.89 126.76 10.89L126.76 10.89Q125.80 10.89 125.09 11.31Q124.38 11.73 124.00 12.48Q123.62 13.23 123.62 14.24L123.62 14.24L123.62 26L118.66 26L118.66 13.95Q118.66 12.55 117.83 11.72Q117.00 10.89 115.69 10.89L115.69 10.89Q114.78 10.89 114.05 11.30Q113.33 11.71 112.91 12.51Q112.49 13.30 112.49 14.45L112.49 14.45L112.49 26ZM142.36 26.38L142.36 26.38Q140.55 26.38 139.11 25.74Q137.66 25.09 136.83 23.82Q136.00 22.55 136.00 20.65L136.00 20.65Q136.00 19.06 136.59 17.98Q137.18 16.91 138.20 16.26Q139.22 15.61 140.51 15.27Q141.80 14.93 143.22 14.79L143.22 14.79Q144.87 14.62 145.89 14.47Q146.91 14.33 147.38 14.01Q147.85 13.70 147.85 13.08L147.85 13.08L147.85 12.99Q147.85 12.17 147.51 11.61Q147.16 11.05 146.50 10.75Q145.83 10.45 144.86 10.45L144.86 10.45Q143.87 10.45 143.13 10.75Q142.40 11.05 141.93 11.54Q141.47 12.04 141.25 12.65L141.25 12.65L136.55 11.87Q137.05 10.21 138.19 9.05Q139.34 7.88 141.04 7.27Q142.74 6.65 144.86 6.65L144.86 6.65Q146.41 6.65 147.86 7.02Q149.32 7.39 150.47 8.16Q151.62 8.93 152.30 10.16Q152.97 11.39 152.97 13.13L152.97 13.13L152.97 26L148.12 26L148.12 23.35L147.95 23.35Q147.49 24.24 146.72 24.91Q145.95 25.59 144.86 25.98Q143.78 26.38 142.36 26.38ZM143.81 22.77L143.81 22.77Q145.03 22.77 145.94 22.29Q146.86 21.81 147.37 20.99Q147.88 20.17 147.88 19.16L147.88 19.16L147.88 17.10Q147.66 17.27 147.20 17.40Q146.74 17.54 146.17 17.64Q145.61 17.75 145.06 17.83Q144.51 17.92 144.09 17.97L144.09 17.97Q143.15 18.10 142.43 18.41Q141.71 18.72 141.32 19.22Q140.93 19.73 140.93 20.51L140.93 20.51Q140.93 21.25 141.30 21.75Q141.68 22.26 142.32 22.51Q142.96 22.77 143.81 22.77ZM158.73 26.32L158.73 26.32Q157.48 26.32 156.63 25.48Q155.77 24.63 155.77 23.39L155.77 23.39Q155.77 22.14 156.63 21.30Q157.48 20.46 158.73 20.46L158.73 20.46Q159.98 20.46 160.83 21.30Q161.69 22.14 161.69 23.39L161.69 23.39Q161.69 24.63 160.83 25.48Q159.98 26.32 158.73 26.32Z"></path></g>
            
          </svg>